<svg width="629" height="116" viewBox="0 0 629 116" fill="none" xmlns="http://www.w3.org/2000/svg">
<g clip-path="url(#clip0_2627_28569)">
<path d="M13.4842 26.8498C9.68806 26.8498 6.44553 25.5844 3.87523 23.0141C1.26538 20.4438 0 17.2408 0 13.3656C0 9.49035 1.30492 6.36644 3.87523 3.79614C6.48507 1.26538 9.68806 0 13.4842 0C17.2803 0 20.6415 1.26538 23.2909 3.79614C25.9007 6.3269 27.2057 9.52989 27.2057 13.326C27.2057 17.1222 25.9007 20.4042 23.2909 22.9745C20.681 25.5448 17.399 26.8102 13.4842 26.8102V26.8498ZM2.5703 113.291V36.696H24.5167V113.291H2.5703Z" fill="#292929"/>
<path d="M84.0687 34.8319C92.8869 34.8319 99.9651 37.4813 105.343 42.7801C110.721 48.0788 113.41 55.1571 113.41 63.9356V113.246H91.4633V71.3697C91.4633 66.7432 90.1188 62.9866 87.3904 60.2186C84.6619 57.411 81.0635 56.027 76.5555 56.027C72.0476 56.027 68.0538 57.4506 65.1276 60.3372C62.2014 63.1843 60.7778 66.9805 60.7778 71.6861V113.285H38.8314V36.6904H60.7778V44.3223C66.9466 37.9954 74.697 34.8714 84.0292 34.8714L84.0687 34.8319Z" fill="#292929"/>
<path d="M171.617 34.8319C180.435 34.8319 187.513 37.4813 192.891 42.7801C198.269 48.0788 200.958 55.1571 200.958 63.9356V113.246H179.012V71.3697C179.012 66.7432 177.667 62.9866 174.939 60.2186C172.21 57.411 168.612 56.027 164.104 56.027C159.596 56.027 155.602 57.4506 152.715 60.3372C149.789 63.1843 148.366 66.9805 148.366 71.6861V113.285H126.419V36.6904H148.366V44.3223C154.534 37.9954 162.285 34.8714 171.617 34.8714V34.8319Z" fill="#292929"/>
<path d="M256.595 35.4343H259.877V57.9739H256.595C249.992 57.9739 244.89 59.7533 241.292 63.2727C237.694 66.792 235.914 71.5767 235.914 77.5873V113.334H213.968V36.6997H235.914V45.3596C241.569 38.7559 248.489 35.4739 256.595 35.4739V35.4343Z" fill="#292929"/>
<path d="M303.256 115.104C291.472 115.104 281.626 111.269 273.717 103.597C265.809 95.926 261.854 86.3961 261.854 74.9682C261.854 63.5402 265.809 54.0499 273.717 46.339C281.626 38.6676 291.472 34.8319 303.256 34.8319C310.888 34.8319 317.808 36.5323 324.016 39.933C330.224 43.3337 335.128 47.9998 338.687 53.8917L319.627 65.4778C318.006 62.5912 315.752 60.2977 312.865 58.5973C309.978 56.897 306.775 56.027 303.256 56.027C297.878 56.027 293.41 57.846 289.851 61.4444C286.292 65.0824 284.473 69.5508 284.473 74.9286C284.473 80.3065 286.252 84.8144 289.851 88.4128C293.41 92.0508 297.878 93.8302 303.256 93.8302C306.775 93.8302 309.978 92.9603 312.865 91.2599C315.752 89.5596 318.006 87.2661 319.627 84.3794L338.687 95.8865C335.128 101.857 330.224 106.524 324.016 109.924C317.808 113.325 310.888 115.025 303.256 115.025V115.104Z" fill="#292929"/>
<path d="M357.391 26.8566C353.594 26.8566 350.352 25.5912 347.782 23.0209C345.172 20.4506 343.906 17.2476 343.906 13.3724C343.906 9.49719 345.211 6.37328 347.782 3.84253C350.352 1.31177 353.555 0.0463867 357.391 0.0463867C361.226 0.0463867 364.587 1.31177 367.197 3.84253C369.807 6.37328 371.112 9.57628 371.112 13.3724C371.112 17.1686 369.807 20.4506 367.197 23.0209C364.587 25.5912 361.305 26.8566 357.391 26.8566ZM346.477 113.298V36.7029H368.423V113.298H346.477Z" fill="#292929"/>
<path d="M425.405 35.4343H428.726V57.9739H425.405C418.801 57.9739 413.7 59.7533 410.102 63.2727C406.503 66.792 404.724 71.5767 404.724 77.5873V113.334H382.777V36.6997H404.724V45.3596C410.418 38.7559 417.298 35.4739 425.405 35.4739V35.4343Z" fill="#292929"/>
<path d="M472.105 115.104C460.321 115.104 450.475 111.269 442.566 103.597C434.658 95.926 430.703 86.3961 430.703 74.9682C430.703 63.5402 434.658 54.0499 442.566 46.339C450.475 38.6676 460.321 34.8319 472.105 34.8319C479.737 34.8319 486.657 36.5323 492.865 39.933C499.074 43.3337 503.977 47.9998 507.536 53.8917L488.476 65.4778C486.855 62.5912 484.601 60.2977 481.714 58.5973C478.827 56.897 475.624 56.027 472.105 56.027C466.727 56.027 462.259 57.846 458.66 61.4444C455.102 65.0824 453.322 69.5508 453.322 74.9286C453.322 80.3065 455.102 84.8144 458.66 88.4128C462.219 92.0508 466.727 93.8302 472.105 93.8302C475.624 93.8302 478.827 92.9603 481.714 91.2599C484.601 89.5596 486.855 87.2661 488.476 84.3794L507.536 95.8865C503.977 101.857 499.074 106.524 492.865 109.924C486.657 113.325 479.737 115.025 472.105 115.025V115.104Z" fill="#292929"/>
<path d="M515.326 113.296V5.06641H537.272V113.296H515.326Z" fill="#292929"/>
<path d="M628.221 75.2845C628.221 77.9339 628.063 80.2274 627.786 82.165H570.686C572.07 86.4752 574.482 89.8364 577.962 92.288C581.442 94.7397 585.554 95.9656 590.339 95.9656C594.452 95.9656 598.208 95.1747 601.569 93.5534C604.931 91.9322 607.619 89.9155 609.557 87.4638L624.307 100.236C620.155 104.942 615.093 108.58 609.122 111.19C603.151 113.8 596.706 115.104 589.746 115.104C577.567 115.104 567.404 111.229 559.258 103.479C551.112 95.7283 547.039 86.0798 547.039 74.5332C547.039 67.1386 548.819 60.4163 552.378 54.3662C555.937 48.3161 560.84 43.5314 567.088 40.0516C573.336 36.5718 580.295 34.8319 587.927 34.8319C599.434 34.8319 609.003 38.6676 616.675 46.339C624.346 54.0103 628.182 63.6588 628.182 75.245L628.221 75.2845ZM587.65 53.7731C583.538 53.7731 579.939 54.9989 576.855 57.4901C573.771 59.9418 571.675 63.3425 570.528 67.5736H604.931C603.705 63.2634 601.569 59.9022 598.485 57.4506C595.401 54.9989 591.763 53.7731 587.611 53.7731H587.65Z" fill="#292929"/>
</g>
<defs>
<clipPath id="clip0_2627_28569">
<rect width="628.221" height="115.11" fill="white"/>
</clipPath>
</defs>
</svg>
